<svg id="Layer_1" data-name="Layer 1" xmlns="http://www.w3.org/2000/svg" viewBox="0 0 120 60"><defs><style>.cls-1{opacity:0;}.cls-2{fill:red;}.cls-3{fill:#0400ff;}</style></defs><g class="cls-1"><rect class="cls-2" width="120" height="60"/></g><path class="cls-3" d="M118.25,1.75v56.5H1.75V1.75h116.5M120,0H0V60H120V0Z"/><path class="cls-3" d="M9.85,9.8H12.7a2.63,2.63,0,0,1,2.78,2.69,2.62,2.62,0,0,1-2.78,2.69H11.29v3H9.85ZM14,12.49c0-.79-.52-1.32-1.5-1.32H11.29v2.64h1.23C13.5,13.81,14,13.28,14,12.49Z"/><path class="cls-3" d="M18.4,9.8h2.76a2.57,2.57,0,0,1,2.78,2.62,2.43,2.43,0,0,1-1.87,2.52l2.1,3.26H22.49L20.5,15h-.66V18.2H18.4Zm4.08,2.62c0-.83-.58-1.25-1.5-1.25H19.84v2.5H21C21.9,13.67,22.48,13.25,22.48,12.42Z"/><path class="cls-3" d="M35.18,14a4.25,4.25,0,1,1-8.49,0,4.25,4.25,0,1,1,8.49,0Zm-1.47,0a2.79,2.79,0,1,0-5.56,0,2.79,2.79,0,1,0,5.56,0Z"/><path class="cls-3" d="M38.38,9.8h2.85A2.63,2.63,0,0,1,44,12.49a2.62,2.62,0,0,1-2.78,2.69H39.82v3H38.38Zm4.17,2.69c0-.79-.52-1.32-1.5-1.32H39.82v2.64h1.23C42,13.81,42.55,13.28,42.55,12.49Z"/><path class="cls-3" d="M48.41,13.21h3.36v1.37H48.41v2.25h3.72V18.2H47V9.8h5.08v1.37H48.41Z"/><path class="cls-3" d="M55.46,9.8h2.76A2.58,2.58,0,0,1,61,12.42a2.43,2.43,0,0,1-1.88,2.52l2.1,3.26H59.55l-2-3.17H56.9V18.2H55.46Zm4.08,2.62c0-.83-.57-1.25-1.5-1.25H56.9v2.5H58C59,13.67,59.54,13.25,59.54,12.42Z"/><path class="cls-3" d="M65.88,11.17H63.56V9.8h6.07v1.37H67.32v7H65.88Z"/><path class="cls-3" d="M76.38,18.2H74.94V14.89L72.07,9.8h1.59l2,3.76L77.76,9.8h1.48l-2.86,5.09Z"/><path class="cls-3" d="M11.18,25.8,13.91,30l2.74-4.23H18v8.4H16.54V28.56l-2.63,4-2.62-4V34.2H9.85V25.8Z"/><path class="cls-3" d="M24,25.8h1.47l3.26,8.4H27.28l-.77-2H23l-.77,2H20.74Zm-.52,5.09H26l-1.26-3.27Z"/><path class="cls-3" d="M31.57,25.8H33v8.4H31.57Z"/><path class="cls-3" d="M38,25.8l4.19,5.79V25.8h1.44v8.4H42.38l-4.2-5.77V34.2H36.74V25.8Z"/><path class="cls-3" d="M48.86,27.17H46.54V25.8h6.07v1.37H50.3v7H48.86Z"/><path class="cls-3" d="M56.92,29.21h3.36v1.37H56.92v2.25h3.72V34.2H55.48V25.8h5.09v1.37H56.92Z"/><path class="cls-3" d="M65.32,25.8l4.2,5.79V25.8H71v8.4H69.67l-4.2-5.77V34.2H64V25.8Z"/><path class="cls-3" d="M76.93,25.8h1.46l3.26,8.4H80.2l-.77-2H75.88l-.76,2H73.66Zm-.53,5.09h2.52l-1.26-3.27Z"/><path class="cls-3" d="M85.68,25.8l4.19,5.79V25.8h1.44v8.4H90l-4.2-5.77V34.2H84.38V25.8Z"/><path class="cls-3" d="M101,32l1,1a4.35,4.35,0,1,1-.12-5.94l-1,.95A2.93,2.93,0,1,0,98.72,33,3,3,0,0,0,101,32Z"/><path class="cls-3" d="M106.25,29.21h3.36v1.37h-3.36v2.25H110V34.2h-5.16V25.8h5.09v1.37h-3.65Z"/><path class="cls-3" d="M9.85,41.8h2.72c1.37,0,2.67.64,2.67,2.4a1.73,1.73,0,0,1-.87,1.55,2,2,0,0,1,1.31,2,2.58,2.58,0,0,1-2.81,2.48h-3Zm2.67,3.43c.8,0,1.26-.3,1.26-1s-.55-1-1.26-1H11.29v2.06Zm1.69,2.49c0-.79-.6-1.12-1.39-1.12H11.29v2.23h1.53C13.61,48.83,14.21,48.51,14.21,47.72Z"/><path class="cls-3" d="M21.83,50.2H20.39V46.89L17.53,41.8h1.58l2.05,3.76,2.05-3.76H24.7l-2.87,5.09Z"/><path class="cls-3" d="M34.63,43.17H32.31V41.8h6.07v1.37H36.06v7H34.63Z"/><path class="cls-3" d="M41.28,48.45a.95.95,0,1,1-.94.95A.94.94,0,0,1,41.28,48.45Z"/><path class="cls-3" d="M49,41.8h1.44v5.76a2.6,2.6,0,0,1-2.87,2.78,2.93,2.93,0,0,1-2.45-1.4l1-.89a1.86,1.86,0,0,0,1.4.93A1.28,1.28,0,0,0,49,47.61Z"/><path class="cls-3" d="M54.55,48.45a.95.95,0,1,1-.95.95A.94.94,0,0,1,54.55,48.45Z"/></svg>