<?xml version="1.0" encoding="utf-8"?>
<!-- Generator: Adobe Illustrator 25.2.1, SVG Export Plug-In . SVG Version: 6.00 Build 0)  -->
<svg version="1.1" id="Layer_1" xmlns="http://www.w3.org/2000/svg" xmlns:xlink="http://www.w3.org/1999/xlink" x="0px" y="0px"
	 viewBox="0 0 38.4 241.1" style="enable-background:new 0 0 38.4 241.1;" xml:space="preserve">
<style type="text/css">
	.st0{fill:#00D150;}
</style>
<path class="st0" d="M0,1.2l18.8,18.6c0.2,0.2,0.5,0.2,0.7,0l0,0L38.4,1.2l0,0V0c-0.1,0-0.3,0.1-0.4,0.2L19.2,18.7L0.3,0.2
	C0.3,0.1,0.1,0,0,0V1.2z"/>
<path class="st0" d="M38,26.8L19.2,43.4L0.3,26.8c-0.1-0.1-0.2-0.1-0.3-0.1v1.2l18.8,16.6c0.2,0.2,0.5,0.2,0.7,0l18.8-16.6l0,0v-1.2
	C38.2,26.7,38.1,26.7,38,26.8z"/>
<path class="st0" d="M38,53.5L19.2,68L0.3,53.5c-0.1-0.1-0.2-0.1-0.3-0.1v1.1L18.9,69c0.2,0.1,0.4,0.1,0.6,0l18.9-14.5v-1.1
	C38.2,53.4,38.1,53.4,38,53.5z"/>
<path class="st0" d="M38.1,80.1L19.2,92.6L0.3,80.1C0.2,80,0.1,80,0,80v1.1l18.9,12.4c0.2,0.1,0.4,0.1,0.5,0l18.9-12.4l0,0V80
	C38.2,80.1,38.1,80.1,38.1,80.1z"/>
<path class="st0" d="M38.1,106.8l-18.9,10.4l-19-10.4c-0.1,0-0.1-0.1-0.2-0.1v1.1l18.9,10.4c0.2,0.1,0.3,0.1,0.5,0l18.9-10.4l0,0
	v-1.1C38.2,106.7,38.2,106.7,38.1,106.8z"/>
<path class="st0" d="M38.1,133.4l-19,8.3l-19-8.3h-0.2v1.1l19,8.3c0.1,0.1,0.3,0.1,0.4,0l19-8.3l0,0v-1.1
	C38.3,133.4,38.2,133.4,38.1,133.4z"/>
<path class="st0" d="M19.1,166.4l-19-6.3H0v1l19,6.2c0.1,0,0.2,0,0.3,0l19-6.3l0,0v-1c-0.1,0-0.1,0-0.2,0L19.1,166.4z"/>
<path class="st0" d="M19.1,191L0,186.8l0,0v1l19,4.2c0.1,0,0.1,0,0.2,0l19.1-4.2l0,0v-1c-0.1,0-0.1,0-0.2,0L19.1,191z"/>
<path class="st0" d="M38.3,213.5L38.3,213.5l-19.2,2.1L0,213.5l0,0v1l19.1,2.1h0.1l19.1-2.1h0.1L38.3,213.5L38.3,213.5z"/>
<rect y="240.1" class="st0" width="38.4" height="1"/>
</svg>
