<svg id="Layer_1" data-name="Layer 1" xmlns="http://www.w3.org/2000/svg" viewBox="0 0 38.36 548"><defs><style>.cls-1{fill:#0400ff;}</style></defs><path class="cls-1" d="M19.18,16.61.31,0A.59.59,0,0,0,0-.09V1.09L18.83,17.63a.59.59,0,0,0,.71,0L38.36,1.09V-.09a.59.59,0,0,0-.31.12Z"/><path class="cls-1" d="M19.18,49.08.28,34.56a.48.48,0,0,0-.28-.1V35.6L18.85,50.09a.61.61,0,0,0,.66,0L38.36,35.6V34.46a.48.48,0,0,0-.28.1Z"/><path class="cls-1" d="M19.18,82.27.25,69.82A.53.53,0,0,0,0,69.74v1.11L18.91,83.29a.52.52,0,0,0,.54,0L38.36,70.85V69.74a.57.57,0,0,0-.25.08Z"/><path class="cls-1" d="M19.18,113.25l-19-10.39A.6.6,0,0,0,0,102.8v1.08l18.94,10.38a.51.51,0,0,0,.48,0l18.94-10.38V102.8a.6.6,0,0,0-.22.06Z"/><path class="cls-1" d="M19.18,145.25l-19-8.33-.18,0v1.05l19,8.33a.55.55,0,0,0,.4,0l19-8.33v-1.05l-.18,0Z"/><path class="cls-1" d="M19.18,178.25.13,172H0v1l19,6.26a.58.58,0,0,0,.32,0l19-6.26v-1h-.13Z"/><path class="cls-1" d="M19.18,212.29.08,208.1a.21.21,0,0,1-.08,0v1l19.07,4.18a.41.41,0,0,0,.22,0l19.07-4.18v-1a.21.21,0,0,1-.08,0Z"/><path class="cls-1" d="M19.18,247.37,0,245.27H0v1l19.13,2.1h.1l19.13-2.1v-1h0Z"/><path class="cls-1" d="M19.18,528.76.28,514.24a.48.48,0,0,0-.28-.1v1.14l18.85,14.49a.61.61,0,0,0,.66,0l18.85-14.49v-1.14a.48.48,0,0,0-.28.1Z"/><path class="cls-1" d="M19.18,493.72.25,481.27a.53.53,0,0,0-.25-.08v1.11l18.91,12.44a.48.48,0,0,0,.54,0L38.36,482.3v-1.11a.57.57,0,0,0-.25.08Z"/><path class="cls-1" d="M19.18,458.7l-19-10.4a.44.44,0,0,0-.22-.05v1.07L18.94,459.7a.46.46,0,0,0,.48,0l18.94-10.38v-1.07a.44.44,0,0,0-.22.05Z"/><path class="cls-1" d="M19.18,423.67l-19-8.33a.39.39,0,0,0-.18,0v1.05l19,8.32a.47.47,0,0,0,.4,0l19-8.32V415.3a.39.39,0,0,0-.18,0Z"/><path class="cls-1" d="M19.18,388.63l-19-6.26s-.09,0-.13,0v1l19,6.26a.58.58,0,0,0,.32,0l19-6.26v-1s-.09,0-.13,0Z"/><path class="cls-1" d="M19.18,353.6.08,349.41s0,0-.08,0v1l19.07,4.18h.22l19.07-4.18v-1s-.06,0-.08,0Z"/><path class="cls-1" d="M19.18,318.56,0,316.46H0v1l19.13,2.1h.1l19.13-2.1v-1h0Z"/><rect class="cls-1" y="283.48" width="38.36" height="1"/></svg>