<svg id="Layer_1" data-name="Layer 1" xmlns="http://www.w3.org/2000/svg" viewBox="0 0 120 60">
<defs>
<style>
    .cls-1{
        fill: #0400ff;

        pointer-events:all;
    }

    .cls-2 {
        stroke: #0400ff;
        stroke-width: 1px;
    }
</style>
</defs>
<path class="cls-1" d="M11.44,11.17H9.13V9.8H15.2v1.37H12.88v7H11.44Z"/>
<path class="cls-1" d="M20.33,9.8h1.44v5.76a2.6,2.6,0,0,1-2.87,2.78,2.94,2.94,0,0,1-2.46-1.4l1.06-.89a1.84,1.84,0,0,0,1.4.93,1.28,1.28,0,0,0,1.43-1.37Z"/>
<path class="cls-1" d="M9.85,25.8H12.7a2.69,2.69,0,1,1,0,5.38H11.29v3H9.85ZM14,28.49c0-.79-.52-1.32-1.5-1.32H11.29v2.64h1.23C13.5,29.81,14,29.28,14,28.49Z"/>
<path class="cls-1" d="M18.4,25.8h2.76a2.57,2.57,0,0,1,2.78,2.62,2.43,2.43,0,0,1-1.87,2.52l2.1,3.26H22.49L20.5,31h-.66V34.2H18.4Zm4.08,2.62c0-.83-.58-1.25-1.5-1.25H19.84v2.5H21C21.9,29.67,22.48,29.25,22.48,28.42Z"/>
<path class="cls-1" d="M35.18,30a4.25,4.25,0,1,1-8.49,0,4.25,4.25,0,1,1,8.49,0Zm-1.47,0a2.79,2.79,0,1,0-5.56,0,2.79,2.79,0,1,0,5.56,0Z"/>
<path class="cls-1" d="M38.38,25.8h2.85a2.69,2.69,0,1,1,0,5.38H39.82v3H38.38Zm4.17,2.69c0-.79-.52-1.32-1.5-1.32H39.82v2.64h1.23C42,29.81,42.55,29.28,42.55,28.49Z"/>
<path class="cls-1" d="M48.37,29.21h3.36v1.37H48.37v2.25h3.72V34.2H46.93V25.8H52v1.37H48.37Z"/>
<path class="cls-1" d="M55.39,25.8h2.76a2.57,2.57,0,0,1,2.78,2.62,2.43,2.43,0,0,1-1.87,2.52l2.1,3.26H59.48l-2-3.17h-.66V34.2H55.39Zm4.08,2.62c0-.83-.58-1.25-1.5-1.25H56.83v2.5H58C58.89,29.67,59.47,29.25,59.47,28.42Z"/>
<path class="cls-1" d="M65.81,27.17H63.49V25.8h6.07v1.37H67.24v7H65.81Z"/>
<path class="cls-1" d="M76.3,34.2H74.86V30.89L72,25.8h1.58l2,3.76,2.05-3.76h1.49L76.3,30.89Z"/>
<path class="cls-1" d="M11.18,41.8,13.91,46l2.74-4.23H18v8.4H16.54V44.56l-2.63,4-2.62-4V50.2H9.85V41.8Z"/>
<path class="cls-1" d="M24,41.8H25.5l3.27,8.4H27.31l-.76-2H23l-.77,2H20.78Zm-.53,5.09H26l-1.26-3.27Z"/>
<path class="cls-1" d="M31.64,41.8h1.44v8.4H31.64Z"/>
<path class="cls-1" d="M38.11,41.8l4.2,5.79V41.8h1.44v8.4H42.46l-4.2-5.77V50.2H36.82V41.8Z"/>
<path class="cls-1" d="M48.91,43.17H46.59V41.8h6.07v1.37H50.35v7H48.91Z"/>
<path class="cls-1" d="M56.94,45.21h3.35v1.37H56.94v2.25h3.71V50.2H55.5V41.8h5.08v1.37H56.94Z"/>
<path class="cls-1" d="M65.25,41.8l4.2,5.79V41.8h1.44v8.4h-1.3L65.4,44.43V50.2H64V41.8Z"/>
<path class="cls-1" d="M76.94,41.8h1.47l3.26,8.4H80.22l-.77-2H75.9l-.77,2H73.68Zm-.52,5.09h2.52l-1.26-3.27Z"/>
<path class="cls-1" d="M85.76,41.8,90,47.59V41.8H91.4v8.4H90.1l-4.2-5.77V50.2H84.46V41.8Z"/>
<path class="cls-1" d="M101.11,48l1,1A4.35,4.35,0,1,1,102,43l-1,1A2.93,2.93,0,1,0,98.85,49,3,3,0,0,0,101.11,48Z"/>
<path class="cls-1" d="M106.38,45.21h3.35v1.37h-3.35v2.25h3.72V50.2h-5.16V41.8H110v1.37h-3.64Z"/>
<path class="cls-1 cls-2" d="M119,1V59H1V1H119m1-1H0V60H120V0Z"/>
</svg>