<?xml version="1.0" encoding="utf-8"?>
<!-- Generator: Adobe Illustrator 25.2.1, SVG Export Plug-In . SVG Version: 6.00 Build 0)  -->
<svg version="1.1" id="Layer_1" xmlns="http://www.w3.org/2000/svg" xmlns:xlink="http://www.w3.org/1999/xlink" x="0px" y="0px"
	 viewBox="0 0 120 60" style="enable-background:new 0 0 120 60;" xml:space="preserve">
<style type="text/css">
	.st0{fill:#00D150;}
</style>
<path class="st0" d="M11.4,11.2H9.1V9.8h6.1v1.4h-2.3v7h-1.4V11.2z"/>
<path class="st0" d="M20.3,9.8h1.4v5.8c0.1,1.4-1,2.7-2.4,2.8c-0.2,0-0.3,0-0.5,0c-1,0-1.9-0.5-2.5-1.4l1.1-0.9
	c0.3,0.5,0.8,0.9,1.4,0.9c0.7,0.1,1.3-0.4,1.4-1.1c0-0.1,0-0.2,0-0.3L20.3,9.8z"/>
<path class="st0" d="M9.9,25.8h2.8c1.5,0,2.7,1.2,2.7,2.7s-1.2,2.7-2.7,2.7h-1.4v3H9.9V25.8z M14,28.5c0-0.8-0.5-1.3-1.5-1.3h-1.2
	v2.6h1.2C13.5,29.8,14,29.3,14,28.5z"/>
<path class="st0" d="M18.4,25.8h2.8c1.4-0.1,2.7,0.9,2.8,2.4c0,0.1,0,0.2,0,0.3c0.1,1.2-0.7,2.2-1.9,2.5l2.1,3.3h-1.7l-2-3.2h-0.7
	v3.2h-1.4V25.8z M22.5,28.4c0-0.8-0.6-1.2-1.5-1.2h-1.1v2.5H21C21.9,29.7,22.5,29.2,22.5,28.4z"/>
<path class="st0" d="M35.2,30c0.1,2.3-1.7,4.3-4,4.5c-2.3,0.1-4.3-1.7-4.5-4c0-0.1,0-0.3,0-0.4c-0.1-2.3,1.7-4.3,4-4.5
	c2.3-0.1,4.3,1.7,4.5,4C35.2,29.7,35.2,29.9,35.2,30z M33.7,30c0.1-1.5-1-2.9-2.5-3c-1.5-0.1-2.9,1-3,2.5c0,0.2,0,0.3,0,0.5
	c-0.1,1.5,1,2.9,2.5,3s2.9-1,3-2.5C33.7,30.3,33.7,30.2,33.7,30z"/>
<path class="st0" d="M38.4,25.8h2.8c1.5,0,2.7,1.2,2.7,2.7s-1.2,2.7-2.7,2.7h-1.4v3h-1.4V25.8z M42.6,28.5c0-0.8-0.5-1.3-1.5-1.3
	h-1.2v2.6H41C42,29.8,42.5,29.3,42.6,28.5z"/>
<path class="st0" d="M48.4,29.2h3.4v1.4h-3.4v2.3h3.7v1.4h-5.2v-8.4H52v1.4h-3.6V29.2z"/>
<path class="st0" d="M55.4,25.8h2.8c1.4-0.1,2.7,0.9,2.8,2.4c0,0.1,0,0.2,0,0.3c0.1,1.2-0.7,2.2-1.9,2.5l2.1,3.3h-1.7l-2-3.2h-0.7
	v3.2h-1.4V25.8z M59.5,28.4c0-0.8-0.6-1.2-1.5-1.2h-1.1v2.5H58C58.9,29.7,59.5,29.2,59.5,28.4z"/>
<path class="st0" d="M65.8,27.2h-2.3v-1.4h6.1v1.4h-2.3v7h-1.4V27.2z"/>
<path class="st0" d="M76.3,34.2h-1.4v-3.3L72,25.8h1.6l2,3.8l2.1-3.8h1.5l-2.8,5.1V34.2z"/>
<path class="st0" d="M11.2,41.8l2.7,4.2l2.7-4.2H18v8.4h-1.5v-5.6l-2.6,4l-2.6-4v5.6H9.9v-8.4H11.2z"/>
<path class="st0" d="M24,41.8h1.5l3.3,8.4h-1.5l-0.8-2H23l-0.8,2h-1.4L24,41.8z M23.5,46.9H26l-1.3-3.3L23.5,46.9z"/>
<path class="st0" d="M31.6,41.8h1.4v8.4h-1.4V41.8z"/>
<path class="st0" d="M38.1,41.8l4.2,5.8v-5.8h1.4v8.4h-1.3l-4.2-5.8v5.8h-1.4v-8.4H38.1z"/>
<path class="st0" d="M48.9,43.2h-2.3v-1.4h6.1v1.4h-2.3v7h-1.4V43.2z"/>
<path class="st0" d="M56.9,45.2h3.3v1.4h-3.3v2.2h3.7v1.4h-5.1v-8.4h5.1v1.4h-3.6V45.2z"/>
<path class="st0" d="M65.2,41.8l4.2,5.8v-5.8h1.4v8.4h-1.3l-4.2-5.8v5.8H64v-8.4H65.2z"/>
<path class="st0" d="M76.9,41.8h1.5l3.3,8.4h-1.5l-0.8-2h-3.6l-0.8,2h-1.5L76.9,41.8z M76.4,46.9h2.5l-1.3-3.3L76.4,46.9z"/>
<path class="st0" d="M85.8,41.8l4.2,5.8v-5.8h1.4v8.4h-1.3l-4.2-5.8v5.8h-1.4v-8.4H85.8z"/>
<path class="st0" d="M101.1,48l1,1c-1.6,1.8-4.4,1.9-6.1,0.3c-1.8-1.6-1.9-4.4-0.3-6.1s4.4-1.9,6.1-0.3c0.1,0,0.1,0.1,0.2,0.1l-1,1
	c-1.1-1.1-3-1.1-4.1,0s-1.1,3,0,4.1c0.5,0.5,1.2,0.8,2,0.9C99.7,49,100.5,48.6,101.1,48z"/>
<path class="st0" d="M106.4,45.2h3.3v1.4h-3.3v2.2h3.7v1.4h-5.2v-8.4h5.1v1.4h-3.6L106.4,45.2z"/>
<path class="st0" d="M119,1v58H1V1H119 M120,0H0v60h120V0z"/>
</svg>
